<svg width="932" height="202" viewBox="0 0 932 202" fill="none" xmlns="http://www.w3.org/2000/svg">
<path d="M84.5852 9.85364C94.6836 9.85364 104.976 9.85364 115.463 9.85364C126.144 9.85364 136.631 10.0114 146.923 10.3268C153 10.5131 158.873 10.7543 164.544 11.0505C170.884 11.3817 175.643 16.9118 175.14 23.2408C174.669 29.1749 169.716 33.7502 163.763 33.7502H95.6546C90.217 33.7502 86.1388 34.8543 83.42 37.0625C80.8954 39.2708 79.6331 42.7409 79.6331 47.4729V136.434C79.6331 141.166 80.8954 144.636 83.42 146.845C86.1388 149.053 90.217 150.157 95.6546 150.157H163.763C169.716 150.157 174.669 154.732 175.14 160.666C175.643 166.995 170.884 172.525 164.544 172.857C158.873 173.153 153 173.394 146.923 173.58C136.631 173.738 126.144 173.817 115.463 173.817C104.976 173.975 94.6836 174.053 84.5852 174.053C72.1564 174.053 62.1552 171.293 54.5814 165.772C47.2018 160.094 43.4149 152.523 43.2207 143.059V40.8481C43.4149 31.3842 47.2018 23.8919 54.5814 18.3712C62.1552 12.6928 72.1564 9.85364 84.5852 9.85364ZM48.4641 88.168C48.4641 82.1571 53.3368 77.2844 59.3477 77.2844H152.352C158.363 77.2844 163.236 82.1571 163.236 88.168C163.236 94.1788 158.363 99.0515 152.352 99.0515H59.3477C53.3368 99.0515 48.4641 94.1788 48.4641 88.168Z" fill="#3739BE"/>
<path d="M464.392 14.7806C481.093 14.7806 494.59 16.2002 504.882 19.0394C515.369 21.8786 522.943 26.7683 527.604 33.7085C532.459 40.491 534.886 50.1127 534.886 62.5736C534.886 70.7757 533.624 77.7948 531.099 83.631C528.769 89.3093 524.788 93.8836 519.156 97.3537C513.839 100.593 506.664 102.701 497.633 103.677C497.284 103.715 497.017 104.009 497.017 104.36C497.017 104.688 497.25 104.969 497.571 105.036C500.699 105.699 503.912 106.923 507.213 108.71C510.903 110.446 514.204 112.969 517.117 116.282C520.224 119.594 522.554 123.853 524.108 129.058L533.847 156.179C538.041 167.858 529.386 180.163 516.976 180.163C509.237 180.163 502.372 175.197 499.951 167.847L487.404 129.768C485.268 124.089 482.355 120.146 478.665 117.938C474.976 115.572 469.926 114.389 463.518 114.389C450.895 114.389 440.117 114.389 431.184 114.389C422.25 114.231 414.774 114.073 408.754 113.916C407.468 113.881 406.216 113.85 404.997 113.823C398.621 113.681 393.521 108.377 393.769 102.004C394.003 95.9716 398.962 91.2021 404.999 91.2021H463.518C472.257 91.0444 479.151 90.2557 484.2 88.8361C489.249 87.2588 492.842 84.5773 494.978 80.7918C497.114 76.8484 498.182 71.3278 498.182 64.2298C498.182 57.2896 497.114 51.9267 494.978 48.1411C492.842 44.3555 489.249 41.7529 484.2 40.3333C479.151 38.756 472.257 37.9673 463.518 37.9673C446.428 37.9673 431.766 38.0462 419.532 38.2039C418.535 38.2168 417.564 38.2296 416.618 38.2425C403.887 38.4156 392.746 29.4245 390.402 16.91C398.17 16.2791 405.452 15.8059 412.249 15.4904C419.24 15.1749 426.814 15.0172 434.971 15.0172C443.127 14.8595 452.934 14.7806 464.392 14.7806ZM426.232 16.91V162.249C426.232 172.143 418.211 180.163 408.317 180.163C398.423 180.163 390.402 172.143 390.402 162.249V16.91H426.232Z" fill="#3739BE"/>
<path d="M644.106 14.7806C659.253 14.7806 672.07 16.2002 682.557 19.0394C693.238 21.7208 701.783 26.2951 708.191 32.7621C714.794 39.0715 719.552 47.6679 722.465 58.5515C725.378 69.2773 726.835 82.6057 726.835 98.5367C726.835 114.468 725.378 127.875 722.465 138.759C719.552 149.484 714.794 158.081 708.191 164.548C701.783 170.857 693.238 175.431 682.557 178.271C672.07 180.952 659.253 182.293 644.106 182.293C629.541 182.293 616.044 182.056 603.615 181.583C591.186 181.268 579.437 180.794 568.368 180.163L568.637 179.76C577.877 165.904 593.668 157.876 610.315 158.396C620.413 158.554 631.677 158.633 644.106 158.633C655.369 158.633 664.205 156.898 670.614 153.428C677.217 149.8 681.877 143.648 684.596 134.973C687.315 126.14 688.674 113.995 688.674 98.5367C688.674 83.0789 687.315 71.0123 684.596 62.337C681.877 53.504 677.217 47.2736 670.614 43.6457C664.205 40.0178 655.369 38.2039 644.106 38.2039C632.065 38.2039 621.287 38.2828 611.771 38.4405C602.45 38.5982 593.322 38.6771 584.389 38.6771L568.368 16.91C579.437 16.2791 591.089 15.8059 603.324 15.4904C615.752 15.0172 629.346 14.7806 644.106 14.7806ZM604.78 16.91V180.163H568.368V98.5367V16.91H604.78Z" fill="#3739BE"/>
<path d="M831.696 14.7806C849.368 14.7806 863.253 16.3579 873.352 19.5126C883.45 22.5095 890.635 27.7936 894.908 35.3647C899.374 42.7782 901.608 53.3463 901.608 67.069C901.608 80.7918 899.472 91.4387 895.199 99.0099C891.121 106.581 884.227 111.865 874.517 114.862C865.001 117.859 852.281 119.357 836.357 119.357C827.618 119.357 819.17 119.121 811.014 118.648C803.051 118.174 795.575 117.543 788.584 116.755C781.787 115.966 775.961 115.178 771.106 114.389C769.924 114.159 768.829 113.938 767.82 113.726C763.712 112.864 761.071 109.105 761.302 104.914C761.572 100.009 765.628 96.1707 770.54 96.1707C778.823 96.1707 787.265 96.1707 795.866 96.1707C807.712 96.1707 819.461 96.1707 831.113 96.1707C839.658 96.013 846.358 95.1455 851.213 93.5681C856.262 91.9908 859.758 89.1516 861.7 85.0506C863.836 80.7918 864.904 74.7979 864.904 67.069C864.904 59.3401 863.836 53.4251 861.7 49.3241C859.758 45.0653 856.262 42.1472 851.213 40.5699C846.358 38.8349 839.658 37.9673 831.113 37.9673C814.024 37.9673 799.362 38.0462 787.127 38.2039C786.209 38.2158 785.313 38.228 784.439 38.2408C771.693 38.4262 760.32 29.4435 757.997 16.91C765.765 16.2791 773.048 15.8059 779.845 15.4904C786.836 15.1749 794.312 15.0172 802.275 15.0172C810.431 14.8595 820.238 14.7806 831.696 14.7806ZM794.41 16.91V161.957C794.41 172.012 786.258 180.163 776.203 180.163C766.148 180.163 757.997 172.012 757.997 161.957V16.91H794.41Z" fill="#3739BE"/>
<path d="M215.327 135.528C222.423 134.563 227.393 128.03 226.429 120.934C225.465 113.839 218.931 108.868 211.836 109.833C204.74 110.797 199.77 117.331 200.734 124.426C201.698 131.522 208.232 136.492 215.327 135.528Z" fill="#3739BE"/>
<path d="M250.748 139.438C257.844 138.474 262.814 131.94 261.85 124.845C260.886 117.749 254.352 112.779 247.257 113.743C240.161 114.707 235.191 121.241 236.155 128.336C237.119 135.432 243.653 140.402 250.748 139.438Z" fill="#3739BE"/>
<path d="M280.935 104.804C288.03 103.84 293.001 97.3063 292.037 90.2108C291.072 83.1153 284.539 78.1449 277.443 79.1091C270.348 80.0733 265.377 86.607 266.342 93.7025C267.306 100.798 273.839 105.768 280.935 104.804Z" fill="#3739BE"/>
<path d="M318.103 121.562C325.198 120.597 330.169 114.064 329.205 106.968C328.24 99.8726 321.707 94.9023 314.611 95.8665C307.516 96.8307 302.545 103.364 303.51 110.46C304.474 117.555 311.007 122.526 318.103 121.562Z" fill="#3739BE"/>
<path d="M345.388 65.5152C352.484 64.551 357.454 58.0174 356.49 50.9219C355.526 43.8264 348.992 38.856 341.896 39.8202C334.801 40.7844 329.83 47.3181 330.795 54.4136C331.759 61.5091 338.293 66.4795 345.388 65.5152Z" fill="#3739BE"/>
<path d="M335.715 48.9463C328.584 63.8724 317.674 86.2906 312.218 97.4998C306.672 95.2004 297.779 90.7388 282.482 84.0942L276.45 81.4248L245.153 117.517L214.186 114.311L212.173 131.594L252.054 136.207L281.131 103.033C293.196 108.372 308.064 115.075 311.353 116.808L313.785 118.659L317.581 117.707C322.234 116.638 322.234 116.638 350.758 56.9338L335.715 48.9463Z" fill="#3739BE"/>
</svg>
